{
	"asset":{
		"generator":"Khronos glTF Blender I/O v4.5.48",
		"version":"2.0"
	},
	"scene":0,
	"scenes":[
		{
			"name":"Scene",
			"nodes":[
				0
			]
		}
	],
	"nodes":[
		{
			"mesh":0,
			"name":"T_room_90"
		}
	],
	"materials":[
		{
			"doubleSided":true,
			"name":"8k",
			"pbrMetallicRoughness":{
				"baseColorTexture":{
					"index":0
				},
				"metallicFactor":0,
				"roughnessFactor":0.5
			}
		}
	],
	"meshes":[
		{
			"name":"T_room_90",
			"primitives":[
				{
					"attributes":{
						"POSITION":0,
						"NORMAL":1,
						"TEXCOORD_0":2
					},
					"indices":3,
					"material":0
				}
			]
		}
	],
	"textures":[
		{
			"sampler":0,
			"source":0
		}
	],
	"images":[
		{
			"mimeType":"image/png",
			"name":"8k",
			"uri":"8k.png"
		}
	],
	"accessors":[
		{
			"bufferView":0,
			"componentType":5126,
			"count":23469,
			"max":[
				2,
				0.5,
				2.007873773574829
			],
			"min":[
				-1.100000023841858,
				-0.5904533863067627,
				-2
			],
			"type":"VEC3"
		},
		{
			"bufferView":1,
			"componentType":5126,
			"count":23469,
			"type":"VEC3"
		},
		{
			"bufferView":2,
			"componentType":5126,
			"count":23469,
			"type":"VEC2"
		},
		{
			"bufferView":3,
			"componentType":5123,
			"count":70080,
			"type":"SCALAR"
		}
	],
	"bufferViews":[
		{
			"buffer":0,
			"byteLength":281628,
			"byteOffset":0,
			"target":34962
		},
		{
			"buffer":0,
			"byteLength":281628,
			"byteOffset":281628,
			"target":34962
		},
		{
			"buffer":0,
			"byteLength":187752,
			"byteOffset":563256,
			"target":34962
		},
		{
			"buffer":0,
			"byteLength":140160,
			"byteOffset":751008,
			"target":34963
		}
	],
	"samplers":[
		{
			"magFilter":9729,
			"minFilter":9987
		}
	],
	"buffers":[
		{
			"byteLength":891168,
			"uri":"test_room.bin"
		}
	]
}
