{
	"asset":{
		"generator":"Khronos glTF Blender I/O v4.5.48",
		"version":"2.0"
	},
	"extensionsUsed":[
		"KHR_materials_emissive_strength",
		"KHR_texture_transform"
	],
	"extensionsRequired":[
		"KHR_texture_transform"
	],
	"scene":0,
	"scenes":[
		{
			"name":"Scene",
			"nodes":[
				1
			]
		}
	],
	"nodes":[
		{
			"name":"+Y_door_chiproom",
			"translation":[
				0,
				0,
				-2
			]
		},
		{
			"children":[
				0
			],
			"mesh":0,
			"name":"chiproom0"
		}
	],
	"materials":[
		{
			"alphaMode": "OPAQUE",
			"doubleSided":false,
			"name":"a",
			"normalTexture":{
				"extensions":{
					"KHR_texture_transform":{
						"offset":[
							0,
							0.5
						],
						"scale":[
							0.5,
							0.5
						]
					}
				},
				"index":0,
				"scale":100
			},
			"pbrMetallicRoughness":{
				"baseColorTexture":{
					"extensions":{
						"KHR_texture_transform":{
							"offset":[
								0,
								0.5
							],
							"scale":[
								0.5,
								0.5
							]
						}
					},
					"index":1
				},
				"metallicFactor":0,
				"roughnessFactor":0.5
			}
		},
		{
			"doubleSided":true,
			"name":"Material",
			"pbrMetallicRoughness":{
				"roughnessFactor":0.1904761791229248
			}
		},
		{
			"doubleSided":true,
			"name":"Material.003",
			"pbrMetallicRoughness":{
				"baseColorFactor":[
					0.052149444818496704,
					0.052149444818496704,
					0.052149444818496704,
					1
				],
				"roughnessFactor":0.0714285597205162
			}
		},
		{
			"doubleSided":true,
			"emissiveFactor":[
				0,
				0.8239045730735385,
				1
			],
			"extensions":{
				"KHR_materials_emissive_strength":{
					"emissiveStrength":1.3584808613574069
				}
			},
			"name":"Material.002",
			"pbrMetallicRoughness":{
				"baseColorFactor":[
					0,
					0.6560852527618408,
					0.8005210161209106,
					1
				],
				"metallicFactor":0,
				"roughnessFactor":0.5
			}
		},
		{
			"doubleSided":true,
			"name":"a.001",
			"normalTexture":{
				"extensions":{
					"KHR_texture_transform":{
						"offset":[
							0,
							0.5
						],
						"scale":[
							0.5,
							0.5
						]
					}
				},
				"index":2,
				"scale":100
			},
			"pbrMetallicRoughness":{
				"baseColorTexture":{
					"extensions":{
						"KHR_texture_transform":{
							"offset":[
								0,
								0.5
							],
							"scale":[
								0.5,
								0.5
							]
						}
					},
					"index":3
				},
				"metallicFactor":0,
				"roughnessFactor":0.5
			}
		},
		{
			"doubleSided":true,
			"name":"Material.006",
			"pbrMetallicRoughness":{
				"baseColorFactor":[
					0.6770939826965332,
					0.5602067708969116,
					0.031234607100486755,
					1
				],
				"roughnessFactor":0.158730149269104
			}
		}
	],
	"meshes":[
		{
			"name":"deadend_0.001",
			"primitives":[
				{
					"attributes":{
						"POSITION":0,
						"NORMAL":1,
						"TEXCOORD_0":2
					},
					"indices":3,
					"material":0
				},
				{
					"attributes":{
						"POSITION":4,
						"NORMAL":5,
						"TEXCOORD_0":6
					},
					"indices":7,
					"material":1
				},
				{
					"attributes":{
						"POSITION":8,
						"NORMAL":9,
						"TEXCOORD_0":10
					},
					"indices":11,
					"material":2
				},
				{
					"attributes":{
						"POSITION":12,
						"NORMAL":13,
						"TEXCOORD_0":14
					},
					"indices":15,
					"material":3
				},
				{
					"attributes":{
						"POSITION":16,
						"NORMAL":17,
						"TEXCOORD_0":18
					},
					"indices":19,
					"material":4
				},
				{
					"attributes":{
						"POSITION":20,
						"NORMAL":21,
						"TEXCOORD_0":22
					},
					"indices":23,
					"material":5
				}
			]
		}
	],
	"textures":[
		{
			"sampler":0,
			"source":0
		},
		{
			"sampler":0,
			"source":1
		},
		{
			"sampler":0,
			"source":0
		},
		{
			"sampler":0,
			"source":1
		}
	],
	"images":[
		{
			"mimeType":"image/png",
			"name":"normal",
			"uri":"normal.png"
		},
		{
			"mimeType":"image/png",
			"name":"color",
			"uri":"color.png"
		}
	],
	"accessors":[
		{
			"bufferView":0,
			"componentType":5126,
			"count":672,
			"max":[
				1.100454568862915,
				0.4999999701976776,
				1.0994516611099243
			],
			"min":[
				-1.0995453596115112,
				-0.5904533863067627,
				-2.0005483627319336
			],
			"type":"VEC3"
		},
		{
			"bufferView":1,
			"componentType":5126,
			"count":672,
			"type":"VEC3"
		},
		{
			"bufferView":2,
			"componentType":5126,
			"count":672,
			"type":"VEC2"
		},
		{
			"bufferView":3,
			"componentType":5123,
			"count":1692,
			"type":"SCALAR"
		},
		{
			"bufferView":4,
			"componentType":5126,
			"count":548,
			"max":[
				0.9464349746704102,
				-0.39876410365104675,
				0.873060941696167
			],
			"min":[
				-0.9415419697761536,
				-0.48517081141471863,
				-0.9784339666366577
			],
			"type":"VEC3"
		},
		{
			"bufferView":5,
			"componentType":5126,
			"count":548,
			"type":"VEC3"
		},
		{
			"bufferView":6,
			"componentType":5126,
			"count":548,
			"type":"VEC2"
		},
		{
			"bufferView":7,
			"componentType":5123,
			"count":792,
			"type":"SCALAR"
		},
		{
			"bufferView":8,
			"componentType":5126,
			"count":3396,
			"max":[
				0.9464349746704102,
				-0.11085329204797745,
				0.873060941696167
			],
			"min":[
				-0.9415419697761536,
				-0.5109621286392212,
				-0.9784339666366577
			],
			"type":"VEC3"
		},
		{
			"bufferView":9,
			"componentType":5126,
			"count":3396,
			"type":"VEC3"
		},
		{
			"bufferView":10,
			"componentType":5126,
			"count":3396,
			"type":"VEC2"
		},
		{
			"bufferView":11,
			"componentType":5123,
			"count":5256,
			"type":"SCALAR"
		},
		{
			"bufferView":12,
			"componentType":5126,
			"count":25546,
			"max":[
				0.9928110241889954,
				-0.07495231181383133,
				0.9607478380203247
			],
			"min":[
				-0.2511967122554779,
				-0.5171198844909668,
				-1.9126625061035156
			],
			"type":"VEC3"
		},
		{
			"bufferView":13,
			"componentType":5126,
			"count":25546,
			"type":"VEC3"
		},
		{
			"bufferView":14,
			"componentType":5126,
			"count":25546,
			"type":"VEC2"
		},
		{
			"bufferView":15,
			"componentType":5123,
			"count":102240,
			"type":"SCALAR"
		},
		{
			"bufferView":16,
			"componentType":5126,
			"count":680,
			"max":[
				0.2371564507484436,
				-0.06976453214883804,
				0.287100613117218
			],
			"min":[
				-0.24183383584022522,
				-0.5175175070762634,
				-0.1918896585702896
			],
			"type":"VEC3"
		},
		{
			"bufferView":17,
			"componentType":5126,
			"count":680,
			"type":"VEC3"
		},
		{
			"bufferView":18,
			"componentType":5126,
			"count":680,
			"type":"VEC2"
		},
		{
			"bufferView":19,
			"componentType":5123,
			"count":1620,
			"type":"SCALAR"
		},
		{
			"bufferView":20,
			"componentType":5126,
			"count":576,
			"max":[
				0.34174108505249023,
				-0.0707869902253151,
				0.39168524742126465
			],
			"min":[
				-0.34641844034194946,
				-0.1489725261926651,
				-0.29647427797317505
			],
			"type":"VEC3"
		},
		{
			"bufferView":21,
			"componentType":5126,
			"count":576,
			"type":"VEC3"
		},
		{
			"bufferView":22,
			"componentType":5126,
			"count":576,
			"type":"VEC2"
		},
		{
			"bufferView":23,
			"componentType":5123,
			"count":1308,
			"type":"SCALAR"
		}
	],
	"bufferViews":[
		{
			"buffer":0,
			"byteLength":8064,
			"byteOffset":0,
			"target":34962
		},
		{
			"buffer":0,
			"byteLength":8064,
			"byteOffset":8064,
			"target":34962
		},
		{
			"buffer":0,
			"byteLength":5376,
			"byteOffset":16128,
			"target":34962
		},
		{
			"buffer":0,
			"byteLength":3384,
			"byteOffset":21504,
			"target":34963
		},
		{
			"buffer":0,
			"byteLength":6576,
			"byteOffset":24888,
			"target":34962
		},
		{
			"buffer":0,
			"byteLength":6576,
			"byteOffset":31464,
			"target":34962
		},
		{
			"buffer":0,
			"byteLength":4384,
			"byteOffset":38040,
			"target":34962
		},
		{
			"buffer":0,
			"byteLength":1584,
			"byteOffset":42424,
			"target":34963
		},
		{
			"buffer":0,
			"byteLength":40752,
			"byteOffset":44008,
			"target":34962
		},
		{
			"buffer":0,
			"byteLength":40752,
			"byteOffset":84760,
			"target":34962
		},
		{
			"buffer":0,
			"byteLength":27168,
			"byteOffset":125512,
			"target":34962
		},
		{
			"buffer":0,
			"byteLength":10512,
			"byteOffset":152680,
			"target":34963
		},
		{
			"buffer":0,
			"byteLength":306552,
			"byteOffset":163192,
			"target":34962
		},
		{
			"buffer":0,
			"byteLength":306552,
			"byteOffset":469744,
			"target":34962
		},
		{
			"buffer":0,
			"byteLength":204368,
			"byteOffset":776296,
			"target":34962
		},
		{
			"buffer":0,
			"byteLength":204480,
			"byteOffset":980664,
			"target":34963
		},
		{
			"buffer":0,
			"byteLength":8160,
			"byteOffset":1185144,
			"target":34962
		},
		{
			"buffer":0,
			"byteLength":8160,
			"byteOffset":1193304,
			"target":34962
		},
		{
			"buffer":0,
			"byteLength":5440,
			"byteOffset":1201464,
			"target":34962
		},
		{
			"buffer":0,
			"byteLength":3240,
			"byteOffset":1206904,
			"target":34963
		},
		{
			"buffer":0,
			"byteLength":6912,
			"byteOffset":1210144,
			"target":34962
		},
		{
			"buffer":0,
			"byteLength":6912,
			"byteOffset":1217056,
			"target":34962
		},
		{
			"buffer":0,
			"byteLength":4608,
			"byteOffset":1223968,
			"target":34962
		},
		{
			"buffer":0,
			"byteLength":2616,
			"byteOffset":1228576,
			"target":34963
		}
	],
	"samplers":[
		{
			"magFilter":9729,
			"minFilter":9987
		}
	],
	"buffers":[
		{
			"byteLength":1231192,
			"uri":"chiproom0.bin"
		}
	]
}
